# xmcd CD database file
#
# Track frame offsets:
#	150
#	12475
#	24050
#	34732
#	50840
#	64092
#	83872
#	93375
#	105792
#	126950
#	142825
#	156942
#	175157
#	195445
#	211090
#	228507
#	240150
#	254077
#	270052
#	296765
#
# Disc length: 4165 seconds
#
# Revision: 2
# Processed by: cddbd v1.5.2PL0 Copyright (c) Steve Scherf et al.
# Submitted via: CDex 1.51
#
DISCID=03104314
DTITLE=Willie Nelson - Greatest Hits
DYEAR=1981
DGENRE=Country
TTITLE0=Railroad Lady
TTITLE1=Heartaches Of A Fool
TTITLE2=Blue Eyes Crying In The Rain
TTITLE3=Whiskey River
TTITLE4=Good Hearted Woman
TTITLE5=Georgia On My Mind
TTITLE6=If You've Got The Money I've Got The Time
TTITLE7=Look What Thoughts Will Do
TTITLE8=Uncloudy Day
TTITLE9=Mammas Don't Let Your Babies Grow Up To Be Cowboys
TTITLE10=My Heroes Have Always Been Cowboys
TTITLE11=Help Me Make It Through The Night
TTITLE12=Angel Flying Too Close To The Ground
TTITLE13=I'd Have To Be Crazy
TTITLE14=Faded Love
TTITLE15=On The Road Again
TTITLE16=Heartbreak Hotel
TTITLE17=If You Could Touch Her At All
TTITLE18=Till I Gain Control Again
TTITLE19=Stay A Little Longer
EXTD=YEAR: 1981
EXTT0=
EXTT1=
EXTT2=
EXTT3=
EXTT4=
EXTT5=
EXTT6=
EXTT7=
EXTT8=
EXTT9=
EXTT10=
EXTT11=
EXTT12=
EXTT13=
EXTT14=
EXTT15=
EXTT16=
EXTT17=
EXTT18=
EXTT19=
PLAYORDER=
